<?xml version="1.0" encoding="UTF-8" standalone="no"?>
<!DOCTYPE svg PUBLIC "-//W3C//DTD SVG 1.0//EN" "http://www.w3.org/TR/2001/PR-SVG-20010719/DTD/svg10.dtd">
<svg width="72cm" height="47cm" viewBox="2 -4 1429 928" xmlns="http://www.w3.org/2000/svg" xmlns:xlink="http://www.w3.org/1999/xlink">
  <rect style="fill: none; fill-opacity:0; stroke-width: 4; stroke: #000000" x="851.428" y="212.43" width="576.999" height="302.642"/>
  <rect style="fill: none; fill-opacity:0; stroke-width: 4; stroke: #000000" x="851.428" y="619.315" width="576.999" height="302.642"/>
  <rect style="fill: none; fill-opacity:0; stroke-width: 4; stroke: #000000" x="184.889" y="616.784" width="576.999" height="302.642"/>
  <g>
    <rect style="fill: #ffffff" x="8.76609" y="125.831" width="151.05" height="110.667"/>
    <rect style="fill: none; fill-opacity:0; stroke-width: 6; stroke: #ffa500" x="8.76609" y="125.831" width="151.05" height="110.667"/>
    <text font-size="33.8667" style="fill: #000000;text-anchor:middle;font-family:Lato;font-style:normal;font-weight:700" x="84.2911" y="172.231">
      <tspan x="84.2911" y="172.231">Public</tspan>
      <tspan x="84.2911" y="214.565">Website</tspan>
    </text>
  </g>
  <text font-size="12.8" style="fill: #000000;text-anchor:start;font-family:sans-serif;font-style:normal;font-weight:normal" x="94.3795" y="189.301">
    <tspan x="94.3795" y="189.301"></tspan>
  </text>
  <g>
    <rect style="fill: #ffffff" x="522.339" y="114.518" width="192.3" height="110.667"/>
    <rect style="fill: none; fill-opacity:0; stroke-width: 6; stroke: #ffa500" x="522.339" y="114.518" width="192.3" height="110.667"/>
    <text font-size="33.8667" style="fill: #000000;text-anchor:middle;font-family:Lato;font-style:normal;font-weight:700" x="618.489" y="160.918">
      <tspan x="618.489" y="160.918">Rails </tspan>
      <tspan x="618.489" y="203.251">application</tspan>
    </text>
  </g>
  <g>
    <rect style="fill: #ffffff" x="494.142" y="340.649" width="274.15" height="110.667"/>
    <rect style="fill: none; fill-opacity:0; stroke-width: 6; stroke: #ffa500" x="494.142" y="340.649" width="274.15" height="110.667"/>
    <text font-size="33.8667" style="fill: #000000;text-anchor:middle;font-family:Lato;font-style:normal;font-weight:700" x="631.217" y="387.049">
      <tspan x="631.217" y="387.049">Future Gateway </tspan>
      <tspan x="631.217" y="429.383">API Server</tspan>
    </text>
  </g>
  <g>
    <rect style="fill: #13643a" x="591.4" y="636.139" width="132" height="106.667"/>
    <rect style="fill: none; fill-opacity:0; stroke-width: 2; stroke: #13643a" x="591.4" y="636.139" width="132" height="106.667"/>
    <text font-size="33.8667" style="fill: #ffffff;text-anchor:middle;font-family:Lato;font-style:normal;font-weight:700" x="657.4" y="680.539">
      <tspan x="657.4" y="680.539">grid</tspan>
      <tspan x="657.4" y="722.872">sites</tspan>
    </text>
  </g>
  <g>
    <rect style="fill: #13643a" x="363.475" y="636.139" width="208.45" height="106.667"/>
    <rect style="fill: none; fill-opacity:0; stroke-width: 2; stroke: #13643a" x="363.475" y="636.139" width="208.45" height="106.667"/>
    <text font-size="33.8667" style="fill: #ffffff;text-anchor:middle;font-family:Lato;font-style:normal;font-weight:700" x="467.7" y="680.539">
      <tspan x="467.7" y="680.539">Cloud </tspan>
      <tspan x="467.7" y="722.872">sites</tspan>
    </text>
  </g>
  <g>
    <rect style="fill: #13643a" x="212.7" y="636.139" width="132" height="106.667"/>
    <rect style="fill: none; fill-opacity:0; stroke-width: 2; stroke: #13643a" x="212.7" y="636.139" width="132" height="106.667"/>
    <text font-size="33.8667" style="fill: #ffffff;text-anchor:middle;font-family:Lato;font-style:normal;font-weight:700" x="278.7" y="680.539">
      <tspan x="278.7" y="680.539">HPC</tspan>
      <tspan x="278.7" y="722.872">sites</tspan>
    </text>
  </g>
  <g>
    <rect style="fill: #ffffff" x="5.31609" y="658.697" width="157.95" height="54.2222"/>
    <rect style="fill: none; fill-opacity:0; stroke-width: 6; stroke: #13643a" x="5.31609" y="658.697" width="157.95" height="54.2222"/>
    <text font-size="22.5778" style="fill: #000000;text-anchor:middle;font-family:Lato;font-style:normal;font-weight:700" x="84.2911" y="693.997">
      <tspan x="84.2911" y="693.997">CODE-RADE</tspan>
    </text>
  </g>
  <g>
    <rect style="fill: #13643a" x="872.696" y="228.423" width="257.35" height="106.667"/>
    <rect style="fill: none; fill-opacity:0; stroke-width: 2; stroke: #13643a" x="872.696" y="228.423" width="257.35" height="106.667"/>
    <text font-size="33.8667" style="fill: #ffffff;text-anchor:middle;font-family:Lato;font-style:normal;font-weight:700" x="1001.37" y="272.823">
      <tspan x="1001.37" y="272.823">Open Access</tspan>
      <tspan x="1001.37" y="315.157">Data repository</tspan>
    </text>
  </g>
  <g>
    <rect style="fill: #ffffff" x="14.4661" y="526.91" width="139.65" height="54.2222"/>
    <rect style="fill: none; fill-opacity:0; stroke-width: 6; stroke: #13643a" x="14.4661" y="526.91" width="139.65" height="54.2222"/>
    <text font-size="22.5778" style="fill: #000000;text-anchor:middle;font-family:Lato;font-style:normal;font-weight:700" x="84.2911" y="562.21">
      <tspan x="84.2911" y="562.21">EGI AppDB</tspan>
    </text>
  </g>
  <g>
    <rect style="fill: #13643a" x="286.746" y="196.887" width="140.6" height="78.4444"/>
    <rect style="fill: none; fill-opacity:0; stroke-width: 2; stroke: #13643a" x="286.746" y="196.887" width="140.6" height="78.4444"/>
    <text font-size="22.5778" style="fill: #ffa500;text-anchor:middle;font-family:Lato;font-style:normal;font-weight:700" x="357.046" y="230.187">
      <tspan x="357.046" y="230.187">Identity</tspan>
      <tspan x="357.046" y="258.409">Federations</tspan>
    </text>
  </g>
  <g>
    <rect style="fill: #ffffff" x="34.9411" y="393.92" width="98.7" height="82.4444"/>
    <rect style="fill: none; fill-opacity:0; stroke-width: 6; stroke: #13643a" x="34.9411" y="393.92" width="98.7" height="82.4444"/>
    <text font-size="22.5778" style="fill: #000000;text-anchor:middle;font-family:Lato;font-style:normal;font-weight:700" x="84.2911" y="429.22">
      <tspan x="84.2911" y="429.22">eToken</tspan>
      <tspan x="84.2911" y="457.442">Server</tspan>
    </text>
  </g>
  <g>
    <rect style="fill: #ffffff" x="309.88" y="354.761" width="147.7" height="82.4444"/>
    <rect style="fill: none; fill-opacity:0; stroke-width: 6; stroke: #ffa500" x="309.88" y="354.761" width="147.7" height="82.4444"/>
    <text font-size="22.5778" style="fill: #000000;text-anchor:middle;font-family:Lato;font-style:normal;font-weight:700" x="383.73" y="390.061">
      <tspan x="383.73" y="390.061">GridEngine/</tspan>
      <tspan x="383.73" y="418.283">jSAGA</tspan>
    </text>
  </g>
  <g>
    <path style="fill: #ffffff" d="M 227.292 764.642 C 227.292,754.242 329.292,754.242 329.292,764.642 L 329.292,847.842 C 329.292,858.242 227.292,858.242 227.292,847.842 L 227.292,764.642z"/>
    <path style="fill: none; fill-opacity:0; stroke-width: 2; stroke: #13643a" d="M 227.292 764.642 C 227.292,754.242 329.292,754.242 329.292,764.642 L 329.292,847.842 C 329.292,858.242 227.292,858.242 227.292,847.842 L 227.292,764.642"/>
    <path style="fill: none; fill-opacity:0; stroke-width: 2; stroke: #13643a" d="M 227.292 764.642 C 227.292,775.042 329.292,775.042 329.292,764.642 L 329.292,847.842"/>
    <text font-size="12.8" style="fill: #000000;text-anchor:start;font-family:sans-serif;font-style:normal;font-weight:normal" x="237.292" y="796.942">
      <tspan x="237.292" y="796.942"></tspan>
    </text>
  </g>
  <g>
    <path style="fill: #ffffff" d="M 417.992 764.642 C 417.992,754.242 519.992,754.242 519.992,764.642 L 519.992,847.842 C 519.992,858.242 417.992,858.242 417.992,847.842 L 417.992,764.642z"/>
    <path style="fill: none; fill-opacity:0; stroke-width: 2; stroke: #13643a" d="M 417.992 764.642 C 417.992,754.242 519.992,754.242 519.992,764.642 L 519.992,847.842 C 519.992,858.242 417.992,858.242 417.992,847.842 L 417.992,764.642"/>
    <path style="fill: none; fill-opacity:0; stroke-width: 2; stroke: #13643a" d="M 417.992 764.642 C 417.992,775.042 519.992,775.042 519.992,764.642 L 519.992,847.842"/>
    <text font-size="12.8" style="fill: #000000;text-anchor:start;font-family:sans-serif;font-style:normal;font-weight:normal" x="427.992" y="796.942">
      <tspan x="427.992" y="796.942"></tspan>
    </text>
  </g>
  <g>
    <path style="fill: #ffffff" d="M 606.692 764.642 C 606.692,754.242 708.692,754.242 708.692,764.642 L 708.692,847.842 C 708.692,858.242 606.692,858.242 606.692,847.842 L 606.692,764.642z"/>
    <path style="fill: none; fill-opacity:0; stroke-width: 2; stroke: #13643a" d="M 606.692 764.642 C 606.692,754.242 708.692,754.242 708.692,764.642 L 708.692,847.842 C 708.692,858.242 606.692,858.242 606.692,847.842 L 606.692,764.642"/>
    <path style="fill: none; fill-opacity:0; stroke-width: 2; stroke: #13643a" d="M 606.692 764.642 C 606.692,775.042 708.692,775.042 708.692,764.642 L 708.692,847.842"/>
    <text font-size="12.8" style="fill: #000000;text-anchor:start;font-family:sans-serif;font-style:normal;font-weight:normal" x="616.692" y="796.942">
      <tspan x="616.692" y="796.942"></tspan>
    </text>
  </g>
  <g>
    <path style="fill: #ffffff" d="M 894.696 367.248 C 894.696,356.848 996.696,356.848 996.696,367.248 L 996.696,450.448 C 996.696,460.848 894.696,460.848 894.696,450.448 L 894.696,367.248z"/>
    <path style="fill: none; fill-opacity:0; stroke-width: 2; stroke: #13643a" d="M 894.696 367.248 C 894.696,356.848 996.696,356.848 996.696,367.248 L 996.696,450.448 C 996.696,460.848 894.696,460.848 894.696,450.448 L 894.696,367.248"/>
    <path style="fill: none; fill-opacity:0; stroke-width: 2; stroke: #13643a" d="M 894.696 367.248 C 894.696,377.648 996.696,377.648 996.696,367.248 L 996.696,450.448"/>
    <text font-size="12.8" style="fill: #000000;text-anchor:start;font-family:sans-serif;font-style:normal;font-weight:normal" x="904.696" y="399.548">
      <tspan x="904.696" y="399.548"></tspan>
    </text>
  </g>
  <g>
    <rect style="fill: #13643a" x="872.696" y="634.26" width="167.15" height="106.667"/>
    <rect style="fill: none; fill-opacity:0; stroke-width: 2; stroke: #13643a" x="872.696" y="634.26" width="167.15" height="106.667"/>
    <text font-size="33.8667" style="fill: #ffffff;text-anchor:middle;font-family:Lato;font-style:normal;font-weight:700" x="956.271" y="678.66">
      <tspan x="956.271" y="678.66">Metadata</tspan>
      <tspan x="956.271" y="720.993">Service</tspan>
    </text>
  </g>
  <g>
    <rect style="fill: #13643a" x="813.292" y="19.0138" width="27" height="26"/>
    <rect style="fill: none; fill-opacity:0; stroke-width: 2; stroke: #13643a" x="813.292" y="19.0138" width="27" height="26"/>
  </g>
  <g>
    <rect style="fill: #ffffff" x="856.292" y="-3.3862" width="278.25" height="40.6"/>
    <text font-size="33.8667" style="fill: #000000;text-anchor:start;font-family:Lato;font-style:normal;font-weight:700" x="856.292" y="30.0138">
      <tspan x="856.292" y="30.0138">External resources</tspan>
    </text>
  </g>
  <g>
    <rect style="fill: #ffa500" x="812.992" y="66.3138" width="26" height="26"/>
    <rect style="fill: none; fill-opacity:0; stroke-width: 2; stroke: #ffa500" x="812.992" y="66.3138" width="26" height="26"/>
  </g>
  <g>
    <rect style="fill: #ffffff" x="855.992" y="43.9138" width="311" height="40.6"/>
    <text font-size="33.8667" style="fill: #000000;text-anchor:start;font-family:Lato;font-style:normal;font-weight:700" x="855.992" y="77.3138">
      <tspan x="855.992" y="77.3138">Internal components</tspan>
    </text>
  </g>
  <g>
    <path style="fill: #ffffff" d="M 894.696 772.364 C 894.696,761.964 996.696,761.964 996.696,772.364 L 996.696,855.564 C 996.696,865.964 894.696,865.964 894.696,855.564 L 894.696,772.364z"/>
    <path style="fill: none; fill-opacity:0; stroke-width: 2; stroke: #13643a" d="M 894.696 772.364 C 894.696,761.964 996.696,761.964 996.696,772.364 L 996.696,855.564 C 996.696,865.964 894.696,865.964 894.696,855.564 L 894.696,772.364"/>
    <path style="fill: none; fill-opacity:0; stroke-width: 2; stroke: #13643a" d="M 894.696 772.364 C 894.696,782.764 996.696,782.764 996.696,772.364 L 996.696,855.564"/>
    <text font-size="12.8" style="fill: #000000;text-anchor:start;font-family:sans-serif;font-style:normal;font-weight:normal" x="904.696" y="804.664">
      <tspan x="904.696" y="804.664"></tspan>
    </text>
  </g>
  <text font-size="12.7998" style="fill: #000000;text-anchor:start;font-family:sans-serif;font-style:normal;font-weight:normal" x="890.582" y="30.9086">
    <tspan x="890.582" y="30.9086"></tspan>
  </text>
  <text font-size="12.7998" style="fill: #000000;text-anchor:start;font-family:sans-serif;font-style:normal;font-weight:normal" x="956.271" y="687.593">
    <tspan x="956.271" y="687.593"></tspan>
  </text>
  <text font-size="12.7998" style="fill: #000000;text-anchor:start;font-family:sans-serif;font-style:normal;font-weight:normal" x="875.025" y="153.946">
    <tspan x="875.025" y="153.946"></tspan>
  </text>
  <text font-size="12.7998" style="fill: #000000;text-anchor:start;font-family:sans-serif;font-style:normal;font-weight:normal" x="866.54" y="149.702">
    <tspan x="866.54" y="149.702"></tspan>
  </text>
  <text font-size="12.7998" style="fill: #000000;text-anchor:start;font-family:sans-serif;font-style:normal;font-weight:normal" x="-13.1007" y="199.2">
    <tspan x="-13.1007" y="199.2"></tspan>
  </text>
  <image x="302.269" y="59.1934" width="108.894" height="108.894" xlink:href="file:///home/becker/logos/orcid_128x128.png"/>
  <text font-size="12.7998" style="fill: #000000;text-anchor:start;font-family:sans-serif;font-style:normal;font-weight:normal" x="473.389" y="768.105">
    <tspan x="473.389" y="768.105"></tspan>
  </text>
  <text font-size="12.7998" style="fill: #000000;text-anchor:start;font-family:sans-serif;font-style:normal;font-weight:normal" x="473.389" y="768.105">
    <tspan x="473.389" y="768.105"></tspan>
  </text>
  <text font-size="22.5778" style="fill: #13643a;text-anchor:start;font-family:Lato;font-style:normal;font-weight:700" x="200.446" y="903.87">
    <tspan x="200.446" y="903.87">Execution Environment</tspan>
  </text>
  <g>
    <path style="fill: none; fill-opacity:0; stroke-width: 6; stroke-linejoin: round; stroke: #ffa500" d="M 937.034,148.184 A 6,6 0 0 0 931.034,142.184"/>
    <line style="fill: none; fill-opacity:0; stroke-width: 6; stroke-linejoin: round; stroke: #ffa500" x1="728.847" y1="142.184" x2="931.034" y2="142.184"/>
    <line style="fill: none; fill-opacity:0; stroke-width: 6; stroke-linejoin: round; stroke: #ffa500" x1="937.034" y1="148.184" x2="937.034" y2="214.215"/>
    <polygon style="fill: #ffa500" points="721.347,142.184 731.347,137.184 728.847,142.184 731.347,147.184 "/>
    <polygon style="fill: none; fill-opacity:0; stroke-width: 6; stroke: #ffa500" points="721.347,142.184 731.347,137.184 728.847,142.184 731.347,147.184 "/>
    <polygon style="fill: #ffa500" points="937.034,221.715 932.034,211.715 937.034,214.215 942.034,211.715 "/>
    <polygon style="fill: none; fill-opacity:0; stroke-width: 6; stroke: #ffa500" points="937.034,221.715 932.034,211.715 937.034,214.215 942.034,211.715 "/>
  </g>
  <g>
    <path style="fill: none; fill-opacity:0; stroke-width: 6; stroke-linejoin: round; stroke: #ffa500" d="M 804.658,714.26 A 6,6 0 0 0 798.658,720.26"/>
    <line style="fill: none; fill-opacity:0; stroke-width: 6; stroke-linejoin: round; stroke: #ffa500" x1="858.488" y1="714.26" x2="804.658" y2="714.26"/>
    <path style="fill: none; fill-opacity:0; stroke-width: 6; stroke-linejoin: round; stroke: #ffa500" d="M 792.658,815.996 A 6,6 0 0 0 798.658,809.996"/>
    <line style="fill: none; fill-opacity:0; stroke-width: 6; stroke-linejoin: round; stroke: #ffa500" x1="798.658" y1="720.26" x2="798.658" y2="809.996"/>
    <path style="fill: none; fill-opacity:0; stroke-width: 6; stroke-linejoin: round; stroke: #ffa500" d="M 657.4,809.996 A 6,6 0 0 0 663.4,815.996"/>
    <line style="fill: none; fill-opacity:0; stroke-width: 6; stroke-linejoin: round; stroke: #ffa500" x1="792.658" y1="815.996" x2="663.4" y2="815.996"/>
    <line style="fill: none; fill-opacity:0; stroke-width: 6; stroke-linejoin: round; stroke: #ffa500" x1="657.4" y1="809.996" x2="657.4" y2="742.805"/>
    <polygon style="fill: #ffa500" points="865.988,714.26 855.988,719.26 858.488,714.26 855.988,709.26 "/>
    <polygon style="fill: none; fill-opacity:0; stroke-width: 6; stroke: #ffa500" points="865.988,714.26 855.988,719.26 858.488,714.26 855.988,709.26 "/>
  </g>
  <text font-size="12.7998" style="fill: #ffa500;text-anchor:start;font-family:sans-serif;font-style:normal;font-weight:normal" x="1109.78" y="615.956">
    <tspan x="1109.78" y="615.956"></tspan>
  </text>
  <text font-size="33.8667" style="fill: #13643a;text-anchor:start;font-family:Lato;font-style:normal;font-weight:700" x="1034.69" y="379.615">
    <tspan x="1034.69" y="379.615">Language Corpi</tspan>
    <tspan x="1034.69" y="421.948">Published Results</tspan>
    <tspan x="1034.69" y="464.282">Reproduced Models</tspan>
  </text>
  <text font-size="33.8667" style="fill: #13643a;text-anchor:start;font-family:Lato;font-style:normal;font-weight:700" x="1034.69" y="784.73">
    <tspan x="1034.69" y="784.73">Performance Results</tspan>
    <tspan x="1034.69" y="827.064">Model Accuracies</tspan>
    <tspan x="1034.69" y="869.397">Experiment Relationships</tspan>
  </text>
  <g>
    <path style="fill: none; fill-opacity:0; stroke-width: 6; stroke-linejoin: round; stroke: #ffa500" d="M 804.658,687.593 A 6,6 0 0 0 798.658,693.593"/>
    <line style="fill: none; fill-opacity:0; stroke-width: 6; stroke-linejoin: round; stroke: #ffa500" x1="858.488" y1="687.593" x2="804.658" y2="687.593"/>
    <path style="fill: none; fill-opacity:0; stroke-width: 6; stroke-linejoin: round; stroke: #ffa500" d="M 792.658,815.996 A 6,6 0 0 0 798.658,809.996"/>
    <line style="fill: none; fill-opacity:0; stroke-width: 6; stroke-linejoin: round; stroke: #ffa500" x1="798.658" y1="693.593" x2="798.658" y2="809.996"/>
    <path style="fill: none; fill-opacity:0; stroke-width: 6; stroke-linejoin: round; stroke: #ffa500" d="M 467.7,809.996 A 6,6 0 0 0 473.7,815.996"/>
    <line style="fill: none; fill-opacity:0; stroke-width: 6; stroke-linejoin: round; stroke: #ffa500" x1="792.658" y1="815.996" x2="473.7" y2="815.996"/>
    <line style="fill: none; fill-opacity:0; stroke-width: 6; stroke-linejoin: round; stroke: #ffa500" x1="467.7" y1="809.996" x2="467.7" y2="742.805"/>
    <polygon style="fill: #ffa500" points="865.988,687.593 855.988,692.593 858.488,687.593 855.988,682.593 "/>
    <polygon style="fill: none; fill-opacity:0; stroke-width: 6; stroke: #ffa500" points="865.988,687.593 855.988,692.593 858.488,687.593 855.988,682.593 "/>
  </g>
  <g>
    <path style="fill: none; fill-opacity:0; stroke-width: 6; stroke-linejoin: round; stroke: #ffa500" d="M 804.658,660.927 A 6,6 0 0 0 798.658,666.927"/>
    <line style="fill: none; fill-opacity:0; stroke-width: 6; stroke-linejoin: round; stroke: #ffa500" x1="858.488" y1="660.927" x2="804.658" y2="660.927"/>
    <path style="fill: none; fill-opacity:0; stroke-width: 6; stroke-linejoin: round; stroke: #ffa500" d="M 792.658,815.996 A 6,6 0 0 0 798.658,809.996"/>
    <line style="fill: none; fill-opacity:0; stroke-width: 6; stroke-linejoin: round; stroke: #ffa500" x1="798.658" y1="666.927" x2="798.658" y2="809.996"/>
    <path style="fill: none; fill-opacity:0; stroke-width: 6; stroke-linejoin: round; stroke: #ffa500" d="M 278.7,809.996 A 6,6 0 0 0 284.7,815.996"/>
    <line style="fill: none; fill-opacity:0; stroke-width: 6; stroke-linejoin: round; stroke: #ffa500" x1="792.658" y1="815.996" x2="284.7" y2="815.996"/>
    <line style="fill: none; fill-opacity:0; stroke-width: 6; stroke-linejoin: round; stroke: #ffa500" x1="278.7" y1="809.996" x2="278.7" y2="742.805"/>
    <polygon style="fill: #ffa500" points="865.988,660.927 855.988,665.927 858.488,660.927 855.988,655.927 "/>
    <polygon style="fill: none; fill-opacity:0; stroke-width: 6; stroke: #ffa500" points="865.988,660.927 855.988,665.927 858.488,660.927 855.988,655.927 "/>
  </g>
  <text font-size="22.5778" style="fill: #13643a;text-anchor:start;font-family:Lato;font-style:normal;font-weight:700" x="866.399" y="498.193">
    <tspan x="866.399" y="498.193">Open Access Data</tspan>
  </text>
  <text font-size="22.5778" style="fill: #13643a;text-anchor:start;font-family:Lato;font-style:normal;font-weight:700" x="866.399" y="902.658">
    <tspan x="866.399" y="902.658">RASR metadata</tspan>
  </text>
  <g>
    <path style="fill: none; fill-opacity:0; stroke-width: 6; stroke-linejoin: round; stroke: #ffa500" d="M 801.486,203.518 A 6,6 0 0 0 795.486,197.518"/>
    <line style="fill: none; fill-opacity:0; stroke-width: 6; stroke-linejoin: round; stroke: #ffa500" x1="728.847" y1="197.518" x2="795.486" y2="197.518"/>
    <path style="fill: none; fill-opacity:0; stroke-width: 6; stroke-linejoin: round; stroke: #ffa500" d="M 801.486,560.686 A 6,6 0 0 0 807.486,566.686"/>
    <line style="fill: none; fill-opacity:0; stroke-width: 6; stroke-linejoin: round; stroke: #ffa500" x1="801.486" y1="203.518" x2="801.486" y2="560.686"/>
    <path style="fill: none; fill-opacity:0; stroke-width: 6; stroke-linejoin: round; stroke: #ffa500" d="M 914.484,572.686 A 6,6 0 0 0 908.484,566.686"/>
    <line style="fill: none; fill-opacity:0; stroke-width: 6; stroke-linejoin: round; stroke: #ffa500" x1="807.486" y1="566.686" x2="908.484" y2="566.686"/>
    <line style="fill: none; fill-opacity:0; stroke-width: 6; stroke-linejoin: round; stroke: #ffa500" x1="914.484" y1="572.686" x2="914.484" y2="634.26"/>
    <polygon style="fill: #ffa500" points="721.347,197.518 731.347,192.518 728.847,197.518 731.347,202.518 "/>
    <polygon style="fill: none; fill-opacity:0; stroke-width: 6; stroke: #ffa500" points="721.347,197.518 731.347,192.518 728.847,197.518 731.347,202.518 "/>
  </g>
  <g>
    <path style="fill: none; fill-opacity:0; stroke-width: 6; stroke-linejoin: round; stroke: #13643a" d="M 340.805,555.682 A 6,6 0 0 0 346.805,549.682"/>
    <line style="fill: none; fill-opacity:0; stroke-width: 6; stroke-linejoin: round; stroke: #13643a" x1="346.805" y1="437.205" x2="346.805" y2="549.682"/>
    <path style="fill: none; fill-opacity:0; stroke-width: 6; stroke-linejoin: round; stroke: #13643a" d="M 284.7,555.682 A 6,6 0 0 0 278.7,561.682"/>
    <line style="fill: none; fill-opacity:0; stroke-width: 6; stroke-linejoin: round; stroke: #13643a" x1="340.805" y1="555.682" x2="284.7" y2="555.682"/>
    <line style="fill: none; fill-opacity:0; stroke-width: 6; stroke-linejoin: round; stroke: #13643a" x1="278.7" y1="561.682" x2="278.7" y2="621.93"/>
    <polygon style="fill: #13643a" points="278.7,629.43 273.7,619.43 278.7,621.93 283.7,619.43 "/>
    <polygon style="fill: none; fill-opacity:0; stroke-width: 6; stroke: #13643a" points="278.7,629.43 273.7,619.43 278.7,621.93 283.7,619.43 "/>
  </g>
  <g>
    <path style="fill: none; fill-opacity:0; stroke-width: 6; stroke-linejoin: round; stroke: #13643a" d="M 383.73,572 A 6,6 0 0 0 389.73,578"/>
    <line style="fill: none; fill-opacity:0; stroke-width: 6; stroke-linejoin: round; stroke: #13643a" x1="383.73" y1="437.205" x2="383.73" y2="572"/>
    <path style="fill: none; fill-opacity:0; stroke-width: 6; stroke-linejoin: round; stroke: #13643a" d="M 467.7,584 A 6,6 0 0 0 461.7,578"/>
    <line style="fill: none; fill-opacity:0; stroke-width: 6; stroke-linejoin: round; stroke: #13643a" x1="389.73" y1="578" x2="461.7" y2="578"/>
    <line style="fill: none; fill-opacity:0; stroke-width: 6; stroke-linejoin: round; stroke: #13643a" x1="467.7" y1="584" x2="467.7" y2="621.93"/>
    <polygon style="fill: #13643a" points="467.7,629.43 462.7,619.43 467.7,621.93 472.7,619.43 "/>
    <polygon style="fill: none; fill-opacity:0; stroke-width: 6; stroke: #13643a" points="467.7,629.43 462.7,619.43 467.7,621.93 472.7,619.43 "/>
  </g>
  <g>
    <path style="fill: none; fill-opacity:0; stroke-width: 6; stroke-linejoin: round; stroke: #13643a" d="M 420.655,535.23 A 6,6 0 0 0 426.655,541.23"/>
    <line style="fill: none; fill-opacity:0; stroke-width: 6; stroke-linejoin: round; stroke: #13643a" x1="420.655" y1="437.205" x2="420.655" y2="535.23"/>
    <path style="fill: none; fill-opacity:0; stroke-width: 6; stroke-linejoin: round; stroke: #13643a" d="M 657.4,547.23 A 6,6 0 0 0 651.4,541.23"/>
    <line style="fill: none; fill-opacity:0; stroke-width: 6; stroke-linejoin: round; stroke: #13643a" x1="426.655" y1="541.23" x2="651.4" y2="541.23"/>
    <line style="fill: none; fill-opacity:0; stroke-width: 6; stroke-linejoin: round; stroke: #13643a" x1="657.4" y1="547.23" x2="657.4" y2="621.93"/>
    <polygon style="fill: #13643a" points="657.4,629.43 652.4,619.43 657.4,621.93 662.4,619.43 "/>
    <polygon style="fill: none; fill-opacity:0; stroke-width: 6; stroke: #13643a" points="657.4,629.43 652.4,619.43 657.4,621.93 662.4,619.43 "/>
  </g>
</svg>
