<?xml version="1.0" encoding="UTF-8" standalone="no"?>
<!DOCTYPE svg PUBLIC "-//W3C//DTD SVG 1.0//EN" "http://www.w3.org/TR/2001/PR-SVG-20010719/DTD/svg10.dtd">
<svg width="127cm" height="49cm" viewBox="-2 -92 2527 976" xmlns="http://www.w3.org/2000/svg" xmlns:xlink="http://www.w3.org/1999/xlink">
  <g>
    <rect style="fill: #ffffff" x="27" y="4.2687" width="248" height="188"/>
    <rect style="fill: none; fill-opacity:0; stroke-width: 2; stroke: #000000" x="27" y="4.2687" width="248" height="188"/>
    <text font-size="12.8" style="fill: #000000;text-anchor:middle;font-family:sans-serif;font-style:normal;font-weight:normal" x="151" y="102.169">
      <tspan x="151" y="102.169">info page</tspan>
    </text>
  </g>
  <g>
    <rect style="fill: #ffffff" x="393.732" y="4.2687" width="248" height="188"/>
    <rect style="fill: none; fill-opacity:0; stroke-width: 2; stroke: #000000" x="393.732" y="4.2687" width="248" height="188"/>
    <text font-size="12.8" style="fill: #000000;text-anchor:middle;font-family:sans-serif;font-style:normal;font-weight:normal" x="517.732" y="102.169">
      <tspan x="517.732" y="102.169">log in</tspan>
    </text>
  </g>
  <g>
    <rect style="fill: #ffffff" x="1109.01" y="329.041" width="248" height="188"/>
    <rect style="fill: none; fill-opacity:0; stroke-width: 2; stroke: #000000" x="1109.01" y="329.041" width="248" height="188"/>
    <text font-size="12.8" style="fill: #000000;text-anchor:middle;font-family:sans-serif;font-style:normal;font-weight:normal" x="1233.01" y="426.941">
      <tspan x="1233.01" y="426.941">prepare new experiment</tspan>
    </text>
  </g>
  <g>
    <rect style="fill: #ffffff" x="1555.35" y="4.2687" width="248" height="188"/>
    <rect style="fill: none; fill-opacity:0; stroke-width: 2; stroke: #000000" x="1555.35" y="4.2687" width="248" height="188"/>
    <text font-size="12.8" style="fill: #000000;text-anchor:middle;font-family:sans-serif;font-style:normal;font-weight:normal" x="1679.35" y="102.169">
      <tspan x="1679.35" y="102.169">fork experiments</tspan>
    </text>
  </g>
  <g>
    <rect style="fill: #ffffff" x="1902.73" y="4.2687" width="248" height="188"/>
    <rect style="fill: none; fill-opacity:0; stroke-width: 2; stroke: #000000" x="1902.73" y="4.2687" width="248" height="188"/>
    <text font-size="12.8" style="fill: #000000;text-anchor:middle;font-family:sans-serif;font-style:normal;font-weight:normal" x="2026.73" y="102.169">
      <tspan x="2026.73" y="102.169">submit experiment</tspan>
    </text>
  </g>
  <g>
    <rect style="fill: #ffffff" x="2276.24" y="26.1094" width="248" height="188"/>
    <rect style="fill: none; fill-opacity:0; stroke-width: 2; stroke: #000000" x="2276.24" y="26.1094" width="248" height="188"/>
    <text font-size="12.8" style="fill: #000000;text-anchor:middle;font-family:sans-serif;font-style:normal;font-weight:normal" x="2400.24" y="124.009">
      <tspan x="2400.24" y="124.009">dashboard</tspan>
    </text>
  </g>
  <g>
    <line style="fill: none; fill-opacity:0; stroke-width: 2; stroke: #000000" x1="275" y1="98.2687" x2="383.996" y2="98.2687"/>
    <polygon style="fill: #000000" points="391.496,98.2687 381.496,103.269 383.996,98.2687 381.496,93.2687 "/>
    <polygon style="fill: none; fill-opacity:0; stroke-width: 2; stroke: #000000" points="391.496,98.2687 381.496,103.269 383.996,98.2687 381.496,93.2687 "/>
  </g>
  <g>
    <rect style="fill: #ffffff" x="1109.01" y="4.2687" width="248" height="188"/>
    <rect style="fill: none; fill-opacity:0; stroke-width: 2; stroke: #000000" x="1109.01" y="4.2687" width="248" height="188"/>
    <text font-size="12.8" style="fill: #000000;text-anchor:middle;font-family:sans-serif;font-style:normal;font-weight:normal" x="1233.02" y="102.169">
      <tspan x="1233.02" y="102.169">browse experiments</tspan>
    </text>
  </g>
  <text font-size="12.8" style="fill: #000000;text-anchor:start;font-family:sans-serif;font-style:normal;font-weight:normal" x="61.047" y="-79.9856">
    <tspan x="61.047" y="-79.9856">Web flow</tspan>
  </text>
  <text font-size="12.8" style="fill: #000000;text-anchor:start;font-family:sans-serif;font-style:normal;font-weight:normal" x="-1.17834" y="633.132">
    <tspan x="-1.17834" y="633.132">Application flow</tspan>
  </text>
  <g>
    <rect style="fill: #ffffff" x="393.732" y="687.432" width="248" height="188"/>
    <rect style="fill: none; fill-opacity:0; stroke-width: 2; stroke: #000000" x="393.732" y="687.432" width="248" height="188"/>
    <text font-size="12.8" style="fill: #000000;text-anchor:middle;font-family:sans-serif;font-style:normal;font-weight:normal" x="517.732" y="785.332">
      <tspan x="517.732" y="785.332">Shibboleth stuff</tspan>
    </text>
  </g>
  <g>
    <rect style="fill: #ffffff" x="777.7" y="694.722" width="248" height="188"/>
    <rect style="fill: none; fill-opacity:0; stroke-width: 2; stroke: #000000" x="777.7" y="694.722" width="248" height="188"/>
    <text font-size="12.8" style="fill: #000000;text-anchor:middle;font-family:sans-serif;font-style:normal;font-weight:normal" x="901.7" y="792.622">
      <tspan x="901.7" y="792.622">experiment catalogue</tspan>
    </text>
  </g>
  <g>
    <rect style="fill: #ffffff" x="732.004" y="4.2687" width="248" height="188"/>
    <rect style="fill: none; fill-opacity:0; stroke-width: 2; stroke: #000000" x="732.004" y="4.2687" width="248" height="188"/>
    <text font-size="12.8" style="fill: #000000;text-anchor:middle;font-family:sans-serif;font-style:normal;font-weight:normal" x="856.004" y="102.169">
      <tspan x="856.004" y="102.169">browse languages</tspan>
    </text>
  </g>
  <g>
    <polyline style="fill: none; fill-opacity:0; stroke-width: 2; stroke: #000000" points="642.74,98.2687 643.74,98.2687 731.004,98.2687 722.268,98.2687 "/>
    <polygon style="fill: #000000" points="729.768,98.2687 739.768,93.2687 737.268,98.2687 739.768,103.269 "/>
    <polygon style="fill: none; fill-opacity:0; stroke-width: 2; stroke: #000000" points="729.768,98.2687 739.768,93.2687 737.268,98.2687 739.768,103.269 "/>
  </g>
  <g>
    <polyline style="fill: none; fill-opacity:0; stroke-width: 2; stroke: #000000" points="1233.02,193.274 1233.02,194.274 1233.01,328.041 1233.01,319.305 "/>
    <polygon style="fill: #000000" points="1233.01,326.805 1238.01,336.805 1233.01,334.305 1228.01,336.805 "/>
    <polygon style="fill: none; fill-opacity:0; stroke-width: 2; stroke: #000000" points="1233.01,326.805 1238.01,336.805 1233.01,334.305 1228.01,336.805 "/>
  </g>
  <g>
    <polyline style="fill: none; fill-opacity:0; stroke-width: 2; stroke: #000000" points="1357.02,98.2687 1358.02,98.2687 1554.35,98.2687 1545.62,98.2687 "/>
    <polygon style="fill: #000000" points="1553.12,98.2687 1563.12,93.2687 1560.62,98.2687 1563.12,103.269 "/>
    <polygon style="fill: none; fill-opacity:0; stroke-width: 2; stroke: #000000" points="1553.12,98.2687 1563.12,93.2687 1560.62,98.2687 1563.12,103.269 "/>
  </g>
  <g>
    <polyline style="fill: none; fill-opacity:0; stroke-width: 2; stroke: #000000" points="1233.01,517.041 1233.01,560.62 2026.73,560.62 2026.73,202.005 "/>
    <polygon style="fill: #000000" points="2026.73,194.505 2031.73,204.505 2026.73,202.005 2021.73,204.505 "/>
    <polygon style="fill: none; fill-opacity:0; stroke-width: 2; stroke: #000000" points="2026.73,194.505 2031.73,204.505 2026.73,202.005 2021.73,204.505 "/>
  </g>
  <g>
    <polyline style="fill: none; fill-opacity:0; stroke-width: 2; stroke: #000000" points="1803.35,98.2687 1804.35,98.2687 1901.73,98.2687 1892.99,98.2687 "/>
    <polygon style="fill: #000000" points="1900.49,98.2687 1910.49,93.2687 1907.99,98.2687 1910.49,103.269 "/>
    <polygon style="fill: none; fill-opacity:0; stroke-width: 2; stroke: #000000" points="1900.49,98.2687 1910.49,93.2687 1907.99,98.2687 1910.49,103.269 "/>
  </g>
  <g>
    <rect style="fill: #ffffff" x="1555.83" y="329.041" width="248" height="188"/>
    <rect style="fill: none; fill-opacity:0; stroke-width: 2; stroke: #000000" x="1555.83" y="329.041" width="248" height="188"/>
    <text font-size="12.8" style="fill: #000000;text-anchor:middle;font-family:sans-serif;font-style:normal;font-weight:normal" x="1679.83" y="426.941">
      <tspan x="1679.83" y="426.941">fork experiments</tspan>
    </text>
  </g>
  <g>
    <rect style="fill: #ffffff" x="732.004" y="329.041" width="248" height="188"/>
    <rect style="fill: none; fill-opacity:0; stroke-width: 2; stroke: #000000" x="732.004" y="329.041" width="248" height="188"/>
    <text font-size="12.8" style="fill: #000000;text-anchor:middle;font-family:sans-serif;font-style:normal;font-weight:normal" x="856.004" y="426.941">
      <tspan x="856.004" y="426.941">browse templates</tspan>
    </text>
  </g>
  <g>
    <polyline style="fill: none; fill-opacity:0; stroke-width: 2; stroke: #000000" points="980.004,423.041 981.004,423.041 1108.01,423.041 1099.28,423.041 "/>
    <polygon style="fill: #000000" points="1106.78,423.041 1116.78,418.041 1114.28,423.041 1116.78,428.041 "/>
    <polygon style="fill: none; fill-opacity:0; stroke-width: 2; stroke: #000000" points="1106.78,423.041 1116.78,418.041 1114.28,423.041 1116.78,428.041 "/>
  </g>
  <g>
    <line style="fill: none; fill-opacity:0; stroke-width: 2; stroke: #000000" x1="856.004" y1="192.269" x2="856.004" y2="319.305"/>
    <polygon style="fill: #000000" points="856.004,326.805 851.004,316.805 856.004,319.305 861.004,316.805 "/>
    <polygon style="fill: none; fill-opacity:0; stroke-width: 2; stroke: #000000" points="856.004,326.805 851.004,316.805 856.004,319.305 861.004,316.805 "/>
  </g>
  <g>
    <polyline style="fill: none; fill-opacity:0; stroke-width: 2; stroke: #000000" points="980.004,98.2687 981.004,98.2687 1108.02,98.2687 1099.28,98.2687 "/>
    <polygon style="fill: #000000" points="1106.78,98.2687 1116.78,93.2687 1114.28,98.2687 1116.78,103.269 "/>
    <polygon style="fill: none; fill-opacity:0; stroke-width: 2; stroke: #000000" points="1106.78,98.2687 1116.78,93.2687 1114.28,98.2687 1116.78,103.269 "/>
  </g>
  <g>
    <polyline style="fill: none; fill-opacity:0; stroke-width: 2; stroke: #000000" points="517.732,192.269 517.732,423.041 722.268,423.041 "/>
    <polygon style="fill: #000000" points="729.768,423.041 719.768,428.041 722.268,423.041 719.768,418.041 "/>
    <polygon style="fill: none; fill-opacity:0; stroke-width: 2; stroke: #000000" points="729.768,423.041 719.768,428.041 722.268,423.041 719.768,418.041 "/>
  </g>
  <g>
    <polyline style="fill: none; fill-opacity:0; stroke-width: 2; stroke: #000000" points="794.004,329.041 794.004,328.041 794.004,193.269 794.004,202.005 "/>
    <polygon style="fill: #000000" points="794.004,194.505 789.004,184.505 794.004,187.005 799.004,184.505 "/>
    <polygon style="fill: none; fill-opacity:0; stroke-width: 2; stroke: #000000" points="794.004,194.505 789.004,184.505 794.004,187.005 799.004,184.505 "/>
  </g>
</svg>
